<?xml version="1.0" encoding="utf-8"?>
<!-- Generator: Adobe Illustrator 16.0.0, SVG Export Plug-In . SVG Version: 6.00 Build 0)  -->
<!DOCTYPE svg PUBLIC "-//W3C//DTD SVG 1.1//EN" "http://www.w3.org/Graphics/SVG/1.1/DTD/svg11.dtd">
<svg version="1.1" id="Layer_1" xmlns="http://www.w3.org/2000/svg" xmlns:xlink="http://www.w3.org/1999/xlink" x="0px" y="0px"
	 width="2471px" height="2500px" viewBox="0 0 2471 2500" enable-background="new 0 0 2471 2500" xml:space="preserve">
<g>
	<circle fill="#4AA566" cx="1219.381" cy="1250" r="267.49"/>
	<path fill="#4AA566" d="M126.856,966.396c0,3.218-3.227,9.662-3.227,12.888c0,29.001,22.558,54.787,54.787,54.787h454.417
		c22.557,0,38.671-12.889,48.341-32.229c93.469-206.258,299.728-344.843,534.979-344.843c325.502,0,589.774,264.272,589.774,589.775
		c0,325.503-264.272,589.773-589.775,589.773c-238.485,0-441.519-141.801-534.979-341.616c-9.67-22.559-25.784-35.455-48.351-35.455
		h-454.39c-29.01,0-54.795,22.558-54.795,54.794c0,3.219,0,9.662,3.226,12.889c125.687,489.862,567.208,850.82,1092.525,850.82
		c622.003,0,1127.98-505.985,1127.98-1127.979c-0.011-622.004-505.996-1127.98-1127.989-1127.98
		C694.072,122.021,252.543,482.978,126.856,966.396z"/>
</g>
</svg>
